inDegrees=no
num_controls=7
num_derivatives=13
num_iterations=105
num_multipliers=7
num_parameters=0
num_slacks=7
num_states=26
objective=0.478905
objective_accelerations=0.010789
objective_balance=0.000376
objective_effort=0.007666
objective_height=0.450974
objective_ligament=0.009102
solver_duration=1436.183006
status=Solve_Succeeded
success=true
DataType=double
version=3
OpenSimVersion=4.5
endheader
time	/jointset/ground_pelvis/pelvis_tilt/value	/jointset/ground_pelvis/pelvis_tx/value	/jointset/ground_pelvis/pelvis_ty/value	/jointset/hip_l/hip_flexion_l/value	/jointset/hip_l/hip_adduction_l/value	/jointset/hip_l/hip_rotation_l/value	/jointset/back/lumbar_extension/value	/jointset/patellofemoral_l/patellar_flexion_l/value	/jointset/knee_l/knee_flexion_l/value	/jointset/knee_l/knee_adduction_l/value	/jointset/knee_l/knee_rotation_l/value	/jointset/ankle_l/ankle_angle_l/value	/jointset/subtalar_l/subtalar_angle_l/value	/jointset/ground_pelvis/pelvis_tilt/speed	/jointset/ground_pelvis/pelvis_tx/speed	/jointset/ground_pelvis/pelvis_ty/speed	/jointset/hip_l/hip_flexion_l/speed	/jointset/hip_l/hip_adduction_l/speed	/jointset/hip_l/hip_rotation_l/speed	/jointset/back/lumbar_extension/speed	/jointset/patellofemoral_l/patellar_flexion_l/speed	/jointset/knee_l/knee_flexion_l/speed	/jointset/knee_l/knee_adduction_l/speed	/jointset/knee_l/knee_rotation_l/speed	/jointset/ankle_l/ankle_angle_l/speed	/jointset/subtalar_l/subtalar_angle_l/speed	/forceset/tau_hip_flexion_l	/forceset/tau_hip_adduction_l	/forceset/tau_hip_rotation_l	/forceset/tau_knee_flexion_l	/forceset/tau_ankle_angle_l	/forceset/tau_subtalar_angle_l	/forceset/tau_lumbar_extension	lambda_cid13_p0	lambda_cid13_p1	lambda_cid13_p2	lambda_cid13_p3	lambda_cid13_p4	lambda_cid13_p5	lambda_cid14_p0	/jointset/ground_pelvis/pelvis_tilt/accel	/jointset/ground_pelvis/pelvis_tx/accel	/jointset/ground_pelvis/pelvis_ty/accel	/jointset/hip_l/hip_flexion_l/accel	/jointset/hip_l/hip_adduction_l/accel	/jointset/hip_l/hip_rotation_l/accel	/jointset/back/lumbar_extension/accel	/jointset/patellofemoral_l/patellar_flexion_l/accel	/jointset/knee_l/knee_flexion_l/accel	/jointset/knee_l/knee_adduction_l/accel	/jointset/knee_l/knee_rotation_l/accel	/jointset/ankle_l/ankle_angle_l/accel	/jointset/subtalar_l/subtalar_angle_l/accel	gamma_cid13_p0	gamma_cid13_p1	gamma_cid13_p2	gamma_cid13_p3	gamma_cid13_p4	gamma_cid13_p5	gamma_cid14_p0
0	0.05848996942863394	0.10260353159793	0.9060905201417672	0.1266922784136757	-0.341241781446819	-0.2521341320416873	-0.2144969558742783	0.205154507014189	0.2051545070141877	-0.1144565516829461	-0.1726775664534962	0.09024313228550125	0.1107282314039021	0	0	0	0	0	0	0	0	0	0	0	0	0	0.08838748857774834	-0.06389782595269629	-0.008741088504270668	-0.2442113075887093	0.2115397950840204	-0.04923530449761494	-0.01867785752344458	39.1940081477407	17.04804497473103	-5.886220217755992	-43.08363797327861	-447.1957556737158	-71.43747271242403	-26.2513217372143	1.405108488417721	0.7631064105393878	-0.1759828530351337	0.2086264095538972	-0.2271068799819528	1.291171044757205	-2.496456231939555	4.689608263251168	4.68960826325176	0.8840963717491812	-0.1943878494830057	3.502171598289301	0.8814541104941608	-2.015969690186109e-09	1.540571123976266e-07	-5.982613836400768e-08	2.00650588976604e-08	4.731242674492292e-08	1.52230255642194e-07	1.539953675473708e-08
0.01	0.05856133661421672	0.102640392035062	0.9060820732658607	0.1267005866375972	-0.3412525003283163	-0.252068065418523	-0.2146213540291833	0.2053842008068875	0.205384200806895	-0.1144126185869299	-0.17268418771312	0.09041447811891193	0.11077175154494	0.01427375373128168	0.007239751074809309	-0.001681947486978755	0.001703961580027375	-0.002135675655949959	0.01315781732960166	-0.02471673225253777	0.04572115694142366	0.04572115694142183	0.008735729689420635	-0.001321662210816095	0.03398372811140701	0.008621814539763378	0.08387036227991861	-0.07616801903068854	-0.007770739027410523	-0.234837597973902	0.1920639709658388	-0.03346796148029726	-0.01567619564100145	33.91882936332849	10.44783197997755	-4.061695612954392	-38.88652022340109	-447.6203252876933	-84.39310157445071	-26.25128619933606	1.438555903762646	0.6845630164481636	-0.1631770799031226	0.1576284335207639	-0.2055873542185948	1.319773324385757	-2.434846912780523	4.480726089691031	4.480726089690438	0.8606920085405541	-0.100678766532184	3.303660845618325	0.8401961062911976	-2.991975358178398e-09	1.896984457032721e-07	-6.907438386089399e-08	2.290099807061439e-08	2.162486098828193e-08	1.558507204480288e-07	2.19151437366094e-08
0.02	0.05877545075477023	0.1027456806950417	0.9060570316384097	0.1267272039575814	-0.3412843338555373	-0.2518720833725959	-0.2149880325447867	0.206064577505035	0.2060645775050299	-0.1142828520458015	-0.172703950266757	0.09091709871904807	0.1108990200274905	0.02854939099372471	0.01368564456953951	-0.003318950308876371	0.003661819211804591	-0.004222929144578395	0.02598308455216956	-0.0484560721398718	0.09013658108697017	0.09013658108696469	0.01716668901892027	-0.002628258807683234	0.0662549533448919	0.01674966830247686	0.07935323598210406	-0.08843821210870412	-0.006800389550689914	-0.2254638883590849	0.1725881468476473	-0.01770061846300649	-0.01267453375853642	28.66849648305319	3.847612900975176	-2.242132222867278	-34.78873648861494	-447.669863579883	-97.26117238467991	-26.25111626556765	1.405485194649906	0.6043348945236455	-0.1669939200189091	0.2594056199038466	-0.2174224465176482	1.22466102335045	-2.300977758898852	4.428461704075726	4.428461704075954	0.8231422997649802	-0.191374726693202	3.159671022704966	0.7826619550842115	-3.967981026170686e-09	2.253397790089175e-07	-7.832262935778032e-08	2.573693724356839e-08	-4.062704768359058e-09	1.594711852538636e-07	2.84307507184817e-08
0.03	0.05913135102799343	0.1029125362560758	0.9060157637518754	0.1267742656640745	-0.3413367789275117	-0.251549676094977	-0.2155872300897557	0.2071824347877881	0.2071824347877781	-0.1140702987042625	-0.1727366048536605	0.09173513238357499	0.1111055629795792	0.04253844020675445	0.01966105504947603	-0.004933831569402677	0.005733562169946851	-0.006263574209325174	0.03844706694352146	-0.07122733066126065	0.133182191754046	0.1331821917540234	0.02527061203978452	-0.003868228649226036	0.09718202981685845	0.02451095584022725	0.07841183978073291	-0.08297861235875037	-0.006637812826675409	-0.2237212723993053	0.1703536179795761	-0.02132760114580993	-0.01192849060810787	27.66914727756859	5.540120780464004	-2.446091772001791	-33.76444921376044	-448.1149807730739	-93.45716523066423	-26.25075699127447	1.38178132553393	0.590487395624113	-0.158616831122175	0.1785142149033969	-0.1970238814438759	1.249589480818147	-2.241783969987293	4.204702479236258	4.20470247923377	0.7930381805305415	-0.08516079413451938	3.033769005590922	0.7656412140586947	-5.835749676083968e-09	2.335638509889116e-07	-7.053196245835738e-08	2.792829540700951e-08	-2.256552749318516e-08	1.502659933386179e-07	2.943876971522486e-08
0.04	0.05962437510152988	0.1031384145760887	0.9059583707323254	0.1268415359163764	-0.3414095581191322	-0.2511041644666834	-0.2164094570341838	0.2087231665234435	0.2087231665234367	-0.1137789019570421	-0.1727806296752414	0.09285734542205192	0.1113882746192333	0.05597415105595832	0.02549019636529539	-0.006543976912033055	0.007703528373456914	-0.008289753073694816	0.05060395468649608	-0.09306195203179554	0.1747114716696306	0.1747114716695972	0.03293537015198152	-0.00490230574075497	0.1270908281347624	0.03198340581550677	0.07747044357933126	-0.07751901260881362	-0.006475236102598643	-0.2219786564395665	0.168119089111484	-0.02495458382863938	-0.01118244745768259	26.69182784365622	7.237393734988999	-2.660659857604522	-32.82650458044486	-448.2069028023994	-89.55973110163107	-26.25001625398142	1.294817521884646	0.5750810617002915	-0.1660467364397267	0.239050268977388	-0.2145292064422225	1.16324209367499	-2.113650328728105	4.125195553777448	4.125195553778937	0.7353093180315258	-0.150196176690417	2.956015391892536	0.7248944425900682	-7.721905191603869e-09	2.412226186116757e-07	-6.238997777756723e-08	3.010636324035759e-08	-4.092021118642745e-08	1.407963548930406e-07	3.033323019681071e-08
